<?xml version="1.0" encoding="UTF-8"?>
<svg version="1.1" xmlns="http://www.w3.org/2000/svg" width="1280" height="1280">
<path d="M0 0 C1.22460938 0.19867676 2.44921875 0.39735352 3.7109375 0.60205078 C64.46781509 10.80205475 117.64232188 36.66404405 167.1875 72.5 C167.79883789 72.93828125 168.41017578 73.3765625 169.04003906 73.828125 C170.40013018 74.83330332 171.70771366 75.9090246 173 77 C173 77.66 173 78.32 173 79 C175.475 79.99 175.475 79.99 178 81 C178 81.66 178 82.32 178 83 C178.721875 83.226875 179.44375 83.45375 180.1875 83.6875 C183.57700303 85.26926808 185.42464097 87.2990137 188 90 C188.94875 90.763125 189.8975 91.52625 190.875 92.3125 C193.17020999 94.19249612 195.08327782 96.17403411 197 98.4375 C200.41430117 102.45878804 204.11557068 106.1197237 207.875 109.8125 C213.69651629 115.56846897 218.94002607 121.55843319 224 128 C224.88120223 129.0597202 225.76548215 130.11688648 226.65234375 131.171875 C240.38530242 147.65799171 252.25430567 165.89065137 262 185 C262.50096191 185.97743164 263.00192383 186.95486328 263.51806641 187.96191406 C283.0969174 226.508328 295.82416513 267.88207717 300 311 C300.11085938 312.1240625 300.22171875 313.248125 300.3359375 314.40625 C301.17271666 324.26667468 301.09485904 334.11357985 301 344 C301.66 344.33 302.32 344.66 303 345 C302.34 345 301.68 345 301 345 C301.02320313 346.04414062 301.04640625 347.08828125 301.0703125 348.1640625 C302.30349709 428.46014152 269.37264263 509.5926713 216 569 C215.51370117 569.54269531 215.02740234 570.08539062 214.52636719 570.64453125 C209.61969583 576.10145307 204.622086 581.42699485 199.3515625 586.53515625 C197.79021139 588.11533807 197.79021139 588.11533807 196.375 590.875 C195.92125 591.57625 195.4675 592.2775 195 593 C194.21625 593.103125 193.4325 593.20625 192.625 593.3125 C189.91468502 593.72347698 189.91468502 593.72347698 188.7421875 595.7578125 C187.91245695 597.21375479 187.08694556 598.67210948 186.265625 600.1328125 C184.58719483 602.60901504 182.80332776 603.14342763 180 604 C179.67 604.99 179.34 605.98 179 607 C177.66666667 607.33333333 176.33333333 607.66666667 175 608 C174.67 608.99 174.34 609.98 174 611 C172.67696283 611.3721042 171.34262065 611.70630173 170 612 C169.67 612.66 169.34 613.32 169 614 C168.01 614.33 167.02 614.66 166 615 C165.67 615.66 165.34 616.32 165 617 C162.38058783 618.74627478 160.96175123 619.38722388 158 620 C158 620.66 158 621.32 158 622 C157.01 622 156.02 622 155 622 C155 622.99 155 623.98 155 625 C152.0173094 626.52448631 149.181798 627.93940067 146 629 C146 629.66 146 630.32 146 631 C145.236875 631.28875 144.47375 631.5775 143.6875 631.875 C140.84970692 632.96269013 140.84970692 632.96269013 138 635 C137.195625 635.474375 136.39125 635.94875 135.5625 636.4375 C133.05506388 637.89256522 133.05506388 637.89256522 131.15625 639.47265625 C128.1092866 641.63092199 124.8320476 642.67715575 121.33984375 643.9375 C118.93762 645.02832614 117.83201424 646.15836889 116 648 C113.765625 649.02734375 113.765625 649.02734375 111.25 649.9375 C108.07233961 651.14473342 105.11436166 652.39461366 102.1875 654.125 C97.62085089 656.81126418 94.34001009 658.30514343 89 658 C89 658.66 89 659.32 89 660 C88.24976563 660.24234375 87.49953125 660.4846875 86.7265625 660.734375 C85.70304687 661.06953125 84.67953125 661.4046875 83.625 661.75 C82.62726563 662.07484375 81.62953125 662.3996875 80.6015625 662.734375 C77.79847676 663.7194073 75.09228993 664.78048988 72.3515625 665.91796875 C66.60028643 668.23991251 60.72718481 669.9267928 54.75 671.5625 C53.64317871 671.86768555 52.53635742 672.17287109 51.39599609 672.48730469 C40.38466613 675.49112954 29.38633851 677.83045052 18.125 679.6875 C16.94671631 679.88520996 16.94671631 679.88520996 15.74462891 680.08691406 C10.767819 680.87111303 6.0381451 681.12050233 1 681 C0.67 681.99 0.34 682.98 0 684 C-32.767286 689.25618581 -68.26962829 689.56638975 -101 684 C-102.0729834 683.82839355 -103.1459668 683.65678711 -104.25146484 683.47998047 C-149.86883141 676.1172467 -194.44562784 660.50817133 -233.50390625 635.55859375 C-235.62878306 634.23179274 -237.73781944 633.06987833 -240 632 C-240 631.34 -240 630.68 -240 630 C-240.99 630 -241.98 630 -243 630 C-243 629.34 -243 628.68 -243 628 C-243.99 628 -244.98 628 -246 628 C-246 627.34 -246 626.68 -246 626 C-246.99 626 -247.98 626 -249 626 C-249 625.34 -249 624.68 -249 624 C-249.99 624 -250.98 624 -252 624 C-252 623.34 -252 622.68 -252 622 C-254.33214148 620.79371992 -256.49642139 619.8345262 -259 619 C-259.33 618.34 -259.66 617.68 -260 617 C-260.99 616.67 -261.98 616.34 -263 616 C-263.33 615.34 -263.66 614.68 -264 614 C-264.99 613.67 -265.98 613.34 -267 613 C-267.99 611.515 -267.99 611.515 -269 610 C-269.99 609.67 -270.98 609.34 -272 609 C-272.99 607.515 -272.99 607.515 -274 606 C-274.99 605.67 -275.98 605.34 -277 605 C-277.639375 604.195625 -278.27875 603.39125 -278.9375 602.5625 C-280.73441919 599.94590715 -280.73441919 599.94590715 -283 599.0625 C-285.46849472 597.75111218 -286.30049874 596.04383141 -287.734375 593.7109375 C-289.79578779 590.9242128 -292.47234465 588.88127668 -295.11328125 586.66015625 C-297.39499275 584.65243909 -299.15916439 582.41212942 -301 580 C-303.1468899 577.79508605 -305.33010695 575.63799338 -307.55859375 573.515625 C-312.84608055 568.38688492 -317.4416179 562.7758486 -322 557 C-322.48243164 556.39397949 -322.96486328 555.78795898 -323.46191406 555.16357422 C-379.03588518 485.1080724 -404.80422097 394.82647742 -395 306 C-389.93137 265.39526075 -379.47618882 225.64599527 -361 189 C-360.55301758 188.09797852 -360.10603516 187.19595703 -359.64550781 186.26660156 C-347.13742102 161.11535144 -331.5162034 138.11336065 -313 117 C-312.13761719 115.98873047 -312.13761719 115.98873047 -311.2578125 114.95703125 C-301.99272871 104.14776682 -292.23649711 93.73876955 -281.53173828 84.34472656 C-280.49215125 83.43206393 -279.4567928 82.51456646 -278.42529297 81.59277344 C-229.03693927 37.46992528 -166.96809831 10.67648477 -102 0 C-100.93152832 -0.17934082 -99.86305664 -0.35868164 -98.76220703 -0.54345703 C-66.87870824 -5.64866983 -31.83195484 -5.18573855 0 0 Z " fill="#FEFEFE" transform="translate(691,298)"/>
<path d="M0 0 C1.22460938 0.19867676 2.44921875 0.39735352 3.7109375 0.60205078 C64.46781509 10.80205475 117.64232188 36.66404405 167.1875 72.5 C167.79883789 72.93828125 168.41017578 73.3765625 169.04003906 73.828125 C170.40013018 74.83330332 171.70771366 75.9090246 173 77 C173 77.66 173 78.32 173 79 C175.475 79.99 175.475 79.99 178 81 C178 81.66 178 82.32 178 83 C178.721875 83.226875 179.44375 83.45375 180.1875 83.6875 C183.57700303 85.26926808 185.42464097 87.2990137 188 90 C188.94875 90.763125 189.8975 91.52625 190.875 92.3125 C193.17020999 94.19249612 195.08327782 96.17403411 197 98.4375 C200.41430117 102.45878804 204.11557068 106.1197237 207.875 109.8125 C213.69651629 115.56846897 218.94002607 121.55843319 224 128 C224.88120223 129.0597202 225.76548215 130.11688648 226.65234375 131.171875 C240.38530242 147.65799171 252.25430567 165.89065137 262 185 C262.50096191 185.97743164 263.00192383 186.95486328 263.51806641 187.96191406 C283.0969174 226.508328 295.82416513 267.88207717 300 311 C300.11085938 312.1240625 300.22171875 313.248125 300.3359375 314.40625 C301.17271666 324.26667468 301.09485904 334.11357985 301 344 C301.66 344.33 302.32 344.66 303 345 C302.34 345 301.68 345 301 345 C301.02320313 346.04414062 301.04640625 347.08828125 301.0703125 348.1640625 C302.30349709 428.46014152 269.37264263 509.5926713 216 569 C215.51370117 569.54269531 215.02740234 570.08539062 214.52636719 570.64453125 C209.61969583 576.10145307 204.622086 581.42699485 199.3515625 586.53515625 C197.79021139 588.11533807 197.79021139 588.11533807 196.375 590.875 C195.92125 591.57625 195.4675 592.2775 195 593 C194.21625 593.103125 193.4325 593.20625 192.625 593.3125 C189.91468502 593.72347698 189.91468502 593.72347698 188.7421875 595.7578125 C187.91245695 597.21375479 187.08694556 598.67210948 186.265625 600.1328125 C184.58719483 602.60901504 182.80332776 603.14342763 180 604 C179.67 604.99 179.34 605.98 179 607 C177.66666667 607.33333333 176.33333333 607.66666667 175 608 C174.67 608.99 174.34 609.98 174 611 C172.67696283 611.3721042 171.34262065 611.70630173 170 612 C169.67 612.66 169.34 613.32 169 614 C168.01 614.33 167.02 614.66 166 615 C165.67 615.66 165.34 616.32 165 617 C162.38058783 618.74627478 160.96175123 619.38722388 158 620 C158 620.66 158 621.32 158 622 C157.01 622 156.02 622 155 622 C155 622.99 155 623.98 155 625 C152.0173094 626.52448631 149.181798 627.93940067 146 629 C146 629.66 146 630.32 146 631 C145.236875 631.28875 144.47375 631.5775 143.6875 631.875 C140.84970692 632.96269013 140.84970692 632.96269013 138 635 C137.195625 635.474375 136.39125 635.94875 135.5625 636.4375 C133.05506388 637.89256522 133.05506388 637.89256522 131.15625 639.47265625 C128.1092866 641.63092199 124.8320476 642.67715575 121.33984375 643.9375 C118.93762 645.02832614 117.83201424 646.15836889 116 648 C113.765625 649.02734375 113.765625 649.02734375 111.25 649.9375 C108.07233961 651.14473342 105.11436166 652.39461366 102.1875 654.125 C97.62085089 656.81126418 94.34001009 658.30514343 89 658 C89 658.66 89 659.32 89 660 C88.24976563 660.24234375 87.49953125 660.4846875 86.7265625 660.734375 C85.70304687 661.06953125 84.67953125 661.4046875 83.625 661.75 C82.62726563 662.07484375 81.62953125 662.3996875 80.6015625 662.734375 C77.79847676 663.7194073 75.09228993 664.78048988 72.3515625 665.91796875 C66.60023491 668.2399333 60.72711729 669.92638767 54.75 671.5625 C53.65623047 671.86478516 52.56246094 672.16707031 51.43554688 672.47851562 C34.47680014 677.1127671 34.47680014 677.1127671 28 678 C27 677 27 677 26.97827148 674.86694336 C27.04896851 673.49227905 27.04896851 673.49227905 27.12109375 672.08984375 C27.19360352 670.60581055 27.19360352 670.60581055 27.26757812 669.09179688 C27.32365234 668.05087891 27.37972656 667.00996094 27.4375 665.9375 C27.48970703 664.89271484 27.54191406 663.84792969 27.59570312 662.77148438 C27.72583296 660.18071764 27.86081158 657.59029334 28 655 C32.58532852 653.43226025 37.17842406 651.923643 41.83203125 650.5703125 C42.65123047 650.33183594 43.47042969 650.09335937 44.31445312 649.84765625 C45.96692345 649.36961558 47.62056112 648.8955901 49.27539062 648.42578125 C56.0733851 646.43482594 62.50121889 643.80526656 69 641 C70.47110229 640.37907471 70.47110229 640.37907471 71.97192383 639.74560547 C91.61983546 631.44130166 110.36392437 622.0414782 128 610 C128.68191406 609.5344873 129.36382813 609.06897461 130.06640625 608.58935547 C142.08635833 600.3350458 153.34316922 591.63079361 164.00390625 581.65234375 C166 580 166 580 168 580 C168 579.34 168 578.68 168 578 C169.3984375 576.625 169.3984375 576.625 171.375 575 C179.33551857 568.2047778 186.34369254 560.80968161 192.86328125 552.62890625 C194.76925276 550.28389926 196.75043534 548.08162177 198.8125 545.875 C204.88344983 539.10540912 209.89374421 531.50444888 215 524 C215.4630957 523.32437012 215.92619141 522.64874023 216.40332031 521.95263672 C238.50879965 489.51161063 254.7198473 452.42317166 263 414 C263.33632181 412.54405852 263.67361361 411.08834088 264.01171875 409.6328125 C266.00001075 400.87031655 267.51468081 392.09609098 268.6875 383.1875 C268.80681885 382.28185303 268.9261377 381.37620605 269.04907227 380.44311523 C270.63774969 367.6797061 271.17574941 354.98081824 271.125 342.125 C271.1234491 341.42311554 271.12189819 340.72123108 271.12030029 339.99807739 C271.0830166 325.60390925 270.52797591 311.43231354 268.33447266 297.17626953 C268.09863111 295.64175016 267.86979229 294.10614651 267.64599609 292.56982422 C259.09526025 234.60517909 233.69238703 179.71659227 196 135 C195.12342522 133.9364226 194.24713649 132.87260941 193.37109375 131.80859375 C182.90384776 119.21887327 171.4962543 107.13022076 158.58203125 97.0234375 C155.77395527 94.82285753 153.08257665 92.51037361 150.375 90.1875 C123.3619864 67.72295013 91.75278882 51.29090288 59 39 C58.21431641 38.69868164 57.42863281 38.39736328 56.61914062 38.08691406 C-17.74810315 9.62082301 -107.33995186 13.93221304 -179.8125 46.1875 C-217.13630244 63.24087048 -249.4120448 85.71476628 -279 114 C-279.94230469 114.89976562 -280.88460937 115.79953125 -281.85546875 116.7265625 C-286.85215609 121.60704781 -291.376203 126.71188502 -295.73046875 132.171875 C-298.03403323 135.04240974 -300.41829548 137.82985214 -302.8125 140.625 C-344.772851 191.08118714 -371.89459163 260.18373169 -373 326 C-373.02046387 327.11826172 -373.04092773 328.23652344 -373.06201172 329.38867188 C-373.46041211 355.32091548 -371.9199529 380.48259104 -367 406 C-366.82629883 406.90927246 -366.65259766 407.81854492 -366.47363281 408.75537109 C-357.30893879 455.48514645 -336.05202154 502.00075106 -306 539 C-304.97326172 540.31291016 -304.97326172 540.31291016 -303.92578125 541.65234375 C-299.86087925 546.83529345 -295.58501397 551.77261246 -291.14453125 556.63671875 C-289.26548887 558.7074303 -287.43985594 560.81078337 -285.625 562.9375 C-278.69273752 570.88306303 -271.06415419 578.21539795 -263 585 C-261.76636719 586.06734375 -261.76636719 586.06734375 -260.5078125 587.15625 C-226.01291734 616.58679767 -186.21920409 637.59668541 -143 651 C-141.89640137 651.34756348 -141.89640137 651.34756348 -140.77050781 651.70214844 C-131.24787211 654.66464954 -121.60277111 656.80405953 -111.8125 658.6875 C-110.27505127 658.99131592 -110.27505127 658.99131592 -108.70654297 659.30126953 C-88.85978252 662.94708932 -68.68304626 663.34262701 -48.5625 663.625 C-46.2584512 663.66332773 -43.95441445 663.70238702 -41.65039062 663.7421875 C-36.10037016 663.83651173 -30.55027251 663.92198519 -25 664 C-23.62190686 656.44447686 -22.26023773 648.88869478 -21 641.3125 C-20.835 640.37083984 -20.67 639.42917969 -20.5 638.45898438 C-17.26063043 618.80765257 -16.61628433 598.94176422 -16.6875 579.0625 C-16.68965515 577.97059357 -16.6918103 576.87868713 -16.69403076 575.75369263 C-16.74381514 560.00902248 -16.9211851 544.49642505 -20 529 C-20.19867676 527.98905273 -20.39735352 526.97810547 -20.60205078 525.93652344 C-30.58752684 477.00395088 -55.39734597 438.65702277 -97 411 C-103.55175081 406.80635165 -110.26038497 402.88214199 -117 399 C-117.82838379 398.52240234 -118.65676758 398.04480469 -119.51025391 397.55273438 C-126.71377175 393.40920475 -133.93740306 389.30082351 -141.16845703 385.20556641 C-160.21388505 374.40649632 -178.63998243 363.63558328 -195 349 C-195.89203125 348.22914063 -196.7840625 347.45828125 -197.703125 346.6640625 C-233.29026944 315.55260187 -255.15212982 268.37507706 -261 222 C-261.15033691 220.84769897 -261.15033691 220.84769897 -261.30371094 219.67211914 C-262.19096744 212.03018835 -262.24029819 204.37302217 -262.25 196.6875 C-262.25167175 195.98634064 -262.25334351 195.28518127 -262.25506592 194.56277466 C-262.25712392 180.1005956 -261.24300568 165.89123165 -257 152 C-255 155 -255 155 -253.84375 157.34765625 C-247.60717013 169.94772314 -238.15353315 177.35763964 -226 184 C-225.42604492 184.32178223 -224.85208984 184.64356445 -224.26074219 184.97509766 C-199.59585449 198.66949003 -171.49338081 205.48519009 -144.13671875 211.4296875 C-109.66663702 218.95164905 -109.66663702 218.95164905 -93.95800781 224.33447266 C-91.75756552 225.08240354 -89.54707011 225.79603598 -87.3359375 226.51171875 C-63.32737676 234.42888362 -42.12716187 245.27388154 -24 263 C-22.87464844 264.04994141 -22.87464844 264.04994141 -21.7265625 265.12109375 C-1.39214477 284.4816409 8.24614166 312.76218544 9.22265625 340.28125 C9.51841393 353.75786466 8.27102811 366.73011859 6 380 C5.85546387 380.85770996 5.71092773 381.71541992 5.56201172 382.59912109 C2.05627688 403.02400592 -2.84906314 423.21357923 -9 443 C-9.66 443 -10.32 443 -11 443 C-11.31710937 442.10023438 -11.63421875 441.20046875 -11.9609375 440.2734375 C-23.68959633 407.6554018 -40.8584111 378.33890987 -62 351 C-62.72574219 350.05769531 -63.45148438 349.11539062 -64.19921875 348.14453125 C-78.64652691 329.95468231 -95.48099587 313.95484433 -114 300 C-114.62729004 299.52643066 -115.25458008 299.05286133 -115.90087891 298.56494141 C-123.72472462 292.68370416 -131.63599098 287.0949161 -140 282 C-137.96004487 283.89770306 -135.91810165 285.79318945 -133.875 287.6875 C-133.30523438 288.21794922 -132.73546875 288.74839844 -132.1484375 289.29492188 C-129.41558651 291.82591456 -126.66776343 294.30113174 -123.78125 296.65625 C-121.45930308 298.61294684 -119.55380115 300.48716867 -117.625 302.8125 C-115.2808441 305.5712337 -112.86999141 308.12798778 -110.25 310.625 C-105.1477636 315.66847744 -100.86588378 321.3380292 -96.51806641 327.02441406 C-94.95689364 329.05609789 -93.37671819 331.07181619 -91.79296875 333.0859375 C-61.30305624 372.06872276 -40.52849778 417.01779033 -23 463 C-22.60296875 464.03108887 -22.2059375 465.06217773 -21.796875 466.12451172 C-8.44520506 500.91262637 0.70362752 536.97949707 5 574 C5.11714355 574.97855957 5.23428711 575.95711914 5.35498047 576.96533203 C8.51493757 604.38136402 7.62296829 631.63018067 4.625 659 C4.51413055 660.02152161 4.40326111 661.04304321 4.28903198 662.09552002 C3.96775298 665.00272682 3.63229877 667.90781067 3.2890625 670.8125 C3.14044014 672.11941299 3.14044014 672.11941299 2.98881531 673.45272827 C2.88889786 674.25852325 2.78898041 675.06431824 2.68603516 675.89453125 C2.60165192 676.59425049 2.51726868 677.29396973 2.43032837 678.01489258 C1.93974814 680.27794222 1.1946972 682.0184603 0 684 C-3.37350646 685.26601825 -7.05349015 685.39101965 -10.625 685.75 C-11.7792749 685.87068848 -12.9335498 685.99137695 -14.12280273 686.11572266 C-42.68711471 688.67707323 -72.69266059 688.81417337 -101 684 C-102.0729834 683.82839355 -103.1459668 683.65678711 -104.25146484 683.47998047 C-149.86883141 676.1172467 -194.44562784 660.50817133 -233.50390625 635.55859375 C-235.62878306 634.23179274 -237.73781944 633.06987833 -240 632 C-240 631.34 -240 630.68 -240 630 C-240.99 630 -241.98 630 -243 630 C-243 629.34 -243 628.68 -243 628 C-243.99 628 -244.98 628 -246 628 C-246 627.34 -246 626.68 -246 626 C-246.99 626 -247.98 626 -249 626 C-249 625.34 -249 624.68 -249 624 C-249.99 624 -250.98 624 -252 624 C-252 623.34 -252 622.68 -252 622 C-254.33214148 620.79371992 -256.49642139 619.8345262 -259 619 C-259.33 618.34 -259.66 617.68 -260 617 C-260.99 616.67 -261.98 616.34 -263 616 C-263.33 615.34 -263.66 614.68 -264 614 C-264.99 613.67 -265.98 613.34 -267 613 C-267.99 611.515 -267.99 611.515 -269 610 C-269.99 609.67 -270.98 609.34 -272 609 C-272.99 607.515 -272.99 607.515 -274 606 C-274.99 605.67 -275.98 605.34 -277 605 C-277.639375 604.195625 -278.27875 603.39125 -278.9375 602.5625 C-280.73441919 599.94590715 -280.73441919 599.94590715 -283 599.0625 C-285.46849472 597.75111218 -286.30049874 596.04383141 -287.734375 593.7109375 C-289.79578779 590.9242128 -292.47234465 588.88127668 -295.11328125 586.66015625 C-297.39499275 584.65243909 -299.15916439 582.41212942 -301 580 C-303.1468899 577.79508605 -305.33010695 575.63799338 -307.55859375 573.515625 C-312.84608055 568.38688492 -317.4416179 562.7758486 -322 557 C-322.48243164 556.39397949 -322.96486328 555.78795898 -323.46191406 555.16357422 C-379.03588518 485.1080724 -404.80422097 394.82647742 -395 306 C-389.93137 265.39526075 -379.47618882 225.64599527 -361 189 C-360.55301758 188.09797852 -360.10603516 187.19595703 -359.64550781 186.26660156 C-347.13742102 161.11535144 -331.5162034 138.11336065 -313 117 C-312.13761719 115.98873047 -312.13761719 115.98873047 -311.2578125 114.95703125 C-301.99272871 104.14776682 -292.23649711 93.73876955 -281.53173828 84.34472656 C-280.49215125 83.43206393 -279.4567928 82.51456646 -278.42529297 81.59277344 C-229.03693927 37.46992528 -166.96809831 10.67648477 -102 0 C-100.93152832 -0.17934082 -99.86305664 -0.35868164 -98.76220703 -0.54345703 C-66.87870824 -5.64866983 -31.83195484 -5.18573855 0 0 Z " fill="#DF87F9" transform="translate(691,298)"/>
<path d="M0 0 C2.67933852 2.67933852 2.80090305 4.86616295 3.5625 8.5625 C3.81128906 9.73941406 4.06007813 10.91632812 4.31640625 12.12890625 C10.69222681 48.23426726 5.26901699 85.28388677 -15.0546875 116.1171875 C-38.74624399 148.83409884 -73.67033708 166.3171496 -110.4140625 180.71582031 C-132.28616061 189.29631226 -153.95855061 199.58342216 -166 221 C-166.33 221.99 -166.66 222.98 -167 224 C-167.66 224 -168.32 224 -169 224 C-166.82547961 215.68937409 -163.54809494 207.9925682 -160 200.1875 C-159.56965454 199.23582443 -159.56965454 199.23582443 -159.13061523 198.2649231 C-147.99564419 173.684436 -134.93560163 151.00303234 -118.31982422 129.69433594 C-117.1506269 128.1933686 -115.99788789 126.67961272 -114.84765625 125.1640625 C-108.24020978 116.71769139 -100.51916104 109.33387353 -92.87182617 101.84008789 C-90.90306279 99.90470644 -88.949704 97.95456409 -87 96 C-107.13952253 107.7412601 -127.33677747 121.61136524 -142 140 C-142.41830078 140.5170752 -142.83660156 141.03415039 -143.26757812 141.56689453 C-158.02293327 159.94952231 -169.65408265 180.94188704 -176.96044922 203.36816406 C-178.1865009 207.063042 -179.41577471 210.05854356 -182 213 C-185.53083662 201.31818948 -188.66391455 189.60287471 -191.3125 177.6875 C-191.56660645 176.55014404 -191.82071289 175.41278809 -192.08251953 174.2409668 C-198.33524112 145.58513906 -196.87153911 117.91539019 -181.01953125 92.87109375 C-163.59177654 67.86000466 -136.06267361 56.35256261 -107.4375 49.125 C-106.06986198 48.77507278 -104.70226829 48.42497226 -103.3347168 48.07470703 C-94.69003712 45.87262584 -86.015816 43.83357329 -77.3125 41.875 C-37.62521705 32.90338065 -37.62521705 32.90338065 -5 10 C-3.02853464 6.77564076 -1.4261356 3.49725716 0 0 Z " fill="#DF87FA" transform="translate(903,515)"/>
<path d="M0 0 C4.4907589 1.41138137 6.78211865 3.62514882 10 7 C10.94875 7.763125 11.8975 8.52625 12.875 9.3125 C15.17020999 11.19249612 17.08327782 13.17403411 19 15.4375 C22.41430117 19.45878804 26.11557068 23.1197237 29.875 26.8125 C35.69651629 32.56846897 40.94002607 38.55843319 46 45 C46.88120223 46.0597202 47.76548215 47.11688648 48.65234375 48.171875 C62.38530242 64.65799171 74.25430567 82.89065137 84 102 C84.50096191 102.97743164 85.00192383 103.95486328 85.51806641 104.96191406 C105.0969174 143.508328 117.82416513 184.88207717 122 228 C122.11085938 229.1240625 122.22171875 230.248125 122.3359375 231.40625 C123.17271666 241.26667468 123.09485904 251.11357985 123 261 C123.66 261.33 124.32 261.66 125 262 C124.34 262 123.68 262 123 262 C123.02320313 263.04414062 123.04640625 264.08828125 123.0703125 265.1640625 C124.30349709 345.46014152 91.37264263 426.5926713 38 486 C37.51370117 486.54269531 37.02740234 487.08539062 36.52636719 487.64453125 C31.61969583 493.10145307 26.622086 498.42699485 21.3515625 503.53515625 C19.79021139 505.11533807 19.79021139 505.11533807 18.375 507.875 C17.92125 508.57625 17.4675 509.2775 17 510 C16.21625 510.103125 15.4325 510.20625 14.625 510.3125 C11.91468502 510.72347698 11.91468502 510.72347698 10.7421875 512.7578125 C9.91245695 514.21375479 9.08694556 515.67210948 8.265625 517.1328125 C6.58719483 519.60901504 4.80332776 520.14342763 2 521 C1.67 521.99 1.34 522.98 1 524 C-0.33333333 524.33333333 -1.66666667 524.66666667 -3 525 C-3.33 525.99 -3.66 526.98 -4 528 C-5.32303717 528.3721042 -6.65737935 528.70630173 -8 529 C-8.33 529.66 -8.66 530.32 -9 531 C-9.99 531.33 -10.98 531.66 -12 532 C-12.33 532.66 -12.66 533.32 -13 534 C-15.61941217 535.74627478 -17.03824877 536.38722388 -20 537 C-20 537.66 -20 538.32 -20 539 C-20.99 539 -21.98 539 -23 539 C-23 539.99 -23 540.98 -23 542 C-25.9826906 543.52448631 -28.818202 544.93940067 -32 546 C-32 546.66 -32 547.32 -32 548 C-32.763125 548.28875 -33.52625 548.5775 -34.3125 548.875 C-37.15029308 549.96269013 -37.15029308 549.96269013 -40 552 C-40.804375 552.474375 -41.60875 552.94875 -42.4375 553.4375 C-44.94493612 554.89256522 -44.94493612 554.89256522 -46.84375 556.47265625 C-49.8907134 558.63092199 -53.1679524 559.67715575 -56.66015625 560.9375 C-59.06238 562.02832614 -60.16798576 563.15836889 -62 565 C-64.234375 566.02734375 -64.234375 566.02734375 -66.75 566.9375 C-69.92766039 568.14473342 -72.88563834 569.39461366 -75.8125 571.125 C-80.37914911 573.81126418 -83.65998991 575.30514343 -89 575 C-86.5096435 573.33976233 -84.17233384 572.04920243 -81.4921875 570.75 C-50.16376016 555.41966695 -21.51529445 536.49521865 4.078125 512.69921875 C6.78878029 510.19512409 9.5427361 507.75073155 12.3125 505.3125 C15.96347342 502.04062126 19.21642126 498.62254597 22.37109375 494.875 C23.91806782 493.09431042 25.53726476 491.49460779 27.25 489.875 C32.22739895 484.97554689 36.35908497 479.33950742 40.60351562 473.81103516 C41.91674898 472.10796435 43.24422232 470.41737264 44.578125 468.73046875 C79.60793259 424.22925864 101.75053535 370.31365085 111.25 314.6875 C111.40114258 313.80698975 111.55228516 312.92647949 111.70800781 312.01928711 C114.49407419 294.66297405 115.40821073 277.37166341 115.375 259.8125 C115.37478851 258.7711792 115.37457703 257.7298584 115.37435913 256.65698242 C115.20253075 171.31935388 82.55848908 89.34888485 25.16015625 26.3828125 C23.73406437 24.80972743 22.32469775 23.22129608 20.93359375 21.6171875 C15.80381068 15.7410824 10.29638606 10.43168176 4.52075195 5.2019043 C2.99791607 3.81859362 1.49670417 2.41154319 0 1 C0 0.67 0 0.34 0 0 Z " fill="#FEFEFE" transform="translate(869,381)"/>
<path d="M0 0 C1.22460938 0.19867676 2.44921875 0.39735352 3.7109375 0.60205078 C53.17267909 8.90580141 99.1861367 27.14988864 141.1875 54.5 C141.97310303 55.00466797 142.75870605 55.50933594 143.56811523 56.02929688 C144.28169189 56.50431641 144.99526855 56.97933594 145.73046875 57.46875 C146.36364014 57.88576172 146.99681152 58.30277344 147.64916992 58.73242188 C148.09494385 59.15072266 148.54071777 59.56902344 149 60 C149 60.99 149 61.98 149 63 C147.68 62.34 146.36 61.68 145 61 C145 60.34 145 59.68 145 59 C144.34257813 58.77828125 143.68515625 58.5565625 143.0078125 58.328125 C138.24475184 56.22495536 134.08435918 53.22699753 129.765625 50.33984375 C110.53890888 37.65021111 88.72382808 27.60310789 67 20 C66.12553223 19.69336426 65.25106445 19.38672852 64.35009766 19.07080078 C61.54993954 18.09736364 58.74543847 17.13825034 55.9375 16.1875 C55.08043457 15.89697754 54.22336914 15.60645508 53.34033203 15.30712891 C48.6044895 13.74146177 43.90527872 12.48184064 39.0246582 11.45825195 C36.27786473 10.83655518 33.65985302 9.92016537 31 9 C20.43627732 5.94082239 10.15670095 4.25101436 -0.76855469 3.22216797 C-4.39581139 2.86102972 -8.0095658 2.40055632 -11.625 1.9375 C-12.85476563 1.78152344 -14.08453125 1.62554687 -15.3515625 1.46484375 C-17.7651053 1.15733669 -20.17627771 0.83055256 -22.58447266 0.48364258 C-27.48817479 -0.12493252 -32.36047257 -0.17953287 -37.296875 -0.203125 C-38.27540436 -0.21013931 -39.25393372 -0.21715363 -40.26211548 -0.22438049 C-43.42479053 -0.24187361 -46.58727826 -0.24823819 -49.75 -0.25 C-51.37001923 -0.25101212 -51.37001923 -0.25101212 -53.02276611 -0.25204468 C-69.86237423 -0.23532228 -86.34419223 0.29552368 -103 3 C-104.093125 3.17692383 -105.18625 3.35384766 -106.3125 3.53613281 C-121.46996878 6.07553513 -136.26564729 9.65378445 -151 14 C-151.68465332 14.20012695 -152.36930664 14.40025391 -153.07470703 14.60644531 C-176.56562603 21.50807369 -201.5412158 31.36081053 -222 45 C-222.99 45 -223.98 45 -225 45 C-225 45.66 -225 46.32 -225 47 C-226.10408203 47.58007812 -226.10408203 47.58007812 -227.23046875 48.171875 C-232.18054908 50.8136616 -236.67935805 53.39946504 -241 57 C-242.03898438 57.58265625 -243.07796875 58.1653125 -244.1484375 58.765625 C-248.28091832 61.09310184 -252.06474117 63.80872173 -255.875 66.625 C-256.55046875 67.11484375 -257.2259375 67.6046875 -257.921875 68.109375 C-261.4934899 70.56944616 -261.4934899 70.56944616 -264 74 C-265.66666667 75 -267.33333333 76 -269 77 C-271.94919217 79.33477713 -274.71511527 81.71511527 -277.375 84.375 C-281.65472629 88.65472629 -286.20672055 92.61768043 -291 96.3125 C-294.60411894 99.26846676 -297.27774604 102.99272601 -300.12890625 106.65234375 C-302.24664916 109.30947003 -304.56819117 111.62898639 -307 114 C-314.80255209 121.23445934 -314.80255209 121.23445934 -319 130 C-319.99 130.33 -320.98 130.66 -322 131 C-323.62526613 133.00996214 -325.10312128 134.99968013 -326.5625 137.125 C-327.00013672 137.75245117 -327.43777344 138.37990234 -327.88867188 139.02636719 C-329.26757671 141.01187179 -330.63378616 143.00574877 -332 145 C-332.42265137 145.6074707 -332.84530273 146.21494141 -333.28076172 146.84082031 C-339.73806812 156.12335635 -345.40079167 165.72606945 -350.75341797 175.68310547 C-352.03562419 178.06621103 -353.3318831 180.44133789 -354.62890625 182.81640625 C-355.46186556 184.35626918 -356.29393009 185.89661654 -357.125 187.4375 C-357.5156665 188.15341309 -357.90633301 188.86932617 -358.30883789 189.60693359 C-360.45033124 193.5782906 -360.45033124 193.5782906 -361 198 C-361.66 198 -362.32 198 -363 198 C-363 199.65 -363 201.3 -363 203 C-363.99 203.33 -364.98 203.66 -366 204 C-366.09796875 204.64066406 -366.1959375 205.28132812 -366.296875 205.94140625 C-367.46190096 212.68047881 -369.03537166 218.03537166 -374 223 C-373.47646738 216.63035318 -371.33270681 211.4348472 -368.75 205.625 C-368.30962402 204.62694336 -367.86924805 203.62888672 -367.41552734 202.60058594 C-353.39220621 171.32415344 -335.6063458 142.77720288 -313 117 C-312.13761719 115.98873047 -312.13761719 115.98873047 -311.2578125 114.95703125 C-301.99272871 104.14776682 -292.23649711 93.73876955 -281.53173828 84.34472656 C-280.49215125 83.43206393 -279.4567928 82.51456646 -278.42529297 81.59277344 C-229.03693927 37.46992528 -166.96809831 10.67648477 -102 0 C-100.93152832 -0.17934082 -99.86305664 -0.35868164 -98.76220703 -0.54345703 C-66.87870824 -5.64866983 -31.83195484 -5.18573855 0 0 Z " fill="#D27DEA" transform="translate(691,298)"/>
<path d="M0 0 C0.66 0.33 1.32 0.66 2 1 C2.4938429 3.72224355 2.84259029 6.34578837 3.10546875 9.09375 C3.23129585 10.36140198 3.23129585 10.36140198 3.35966492 11.65466309 C4.32057246 22.25699969 4.35078247 32.86208928 4.3125 43.5 C4.31067719 44.554151 4.30885437 45.608302 4.30697632 46.69439697 C4.2596627 62.97613895 3.70165097 78.91028366 1 95 C0.82307617 96.07217773 0.64615234 97.14435547 0.46386719 98.24902344 C-4.36013668 126.71814471 -10.95911698 158.47112179 -25 184 C-26.485 184.99 -26.485 184.99 -28 186 C-26.40117538 181.02148176 -24.54162753 176.17429009 -22.625 171.3125 C-18.39548792 160.57964522 -14.52300426 149.91117755 -11.5625 138.75 C-11.2631958 137.62827393 -10.9638916 136.50654785 -10.65551758 135.35083008 C-2.83413633 105.6187096 1.39499901 76.40829661 1.20581055 45.64428711 C1.1872007 42.51212643 1.18530427 39.3802579 1.18554688 36.24804688 C1.18064156 34.22916412 1.1748176 32.21028334 1.16796875 30.19140625 C1.16685593 29.26848282 1.1657431 28.34555939 1.16459656 27.39466858 C1.12866703 22.49824299 0.77904091 17.84693927 0 13 C-0.06400078 10.68829193 -0.08633991 8.37497096 -0.0625 6.0625 C-0.05347656 4.91910156 -0.04445313 3.77570312 -0.03515625 2.59765625 C-0.02355469 1.74042969 -0.01195312 0.88320313 0 0 Z " fill="#D585ED" transform="translate(981,596)"/>
<path d="M0 0 C3.62795158 1.37691019 6.985756 2.9974649 10.38671875 4.86328125 C11.40830078 5.42080078 12.42988281 5.97832031 13.48242188 6.55273438 C14.54009766 7.13345703 15.59777344 7.71417969 16.6875 8.3125 C26.29495382 13.57841044 35.85937845 18.82041949 46 23 C47.07507813 23.44424316 47.07507813 23.44424316 48.171875 23.89746094 C78.89419622 36.52464015 110.15795711 44.11330641 143 49 C143 49.33 143 49.66 143 50 C134.89764918 50.2990429 127.38610992 49.47422345 119.4375 47.9375 C118.26928711 47.71489502 117.10107422 47.49229004 115.89746094 47.26293945 C76.42364384 39.48851657 39.18202063 24.96016903 4.40234375 4.80078125 C3.56050537 4.31391846 2.71866699 3.82705566 1.85131836 3.32543945 C1.2403833 2.88804443 0.62944824 2.45064941 0 2 C0 1.34 0 0.68 0 0 Z " fill="#D079E9" transform="translate(458,932)"/>
<path d="M0 0 C1.98 0.99 1.98 0.99 4 2 C4 2.66 4 3.32 4 4 C4.66 4 5.32 4 6 4 C7.28788243 5.47144268 8.50570327 7.0045715 9.6875 8.5625 C13.19170111 13.05701881 16.88653478 17.06845707 21 21 C26 26 26 26 28.1875 28.25 C38.12669646 37.96832543 48.83225642 46.74003331 60 55 C60.64735107 55.48130371 61.29470215 55.96260742 61.96166992 56.45849609 C64.62168 58.40446838 66.85307497 59.95102499 70 61 C70.763125 61.78375 71.52625 62.5675 72.3125 63.375 C75.05809579 66.05674473 77.51300413 67.45923438 81 69 C81 69.66 81 70.32 81 71 C79.35 70.67 77.7 70.34 76 70 C76 69.34 76 68.68 76 68 C75.01 68 74.02 68 73 68 C73 67.34 73 66.68 73 66 C72.01 66 71.02 66 70 66 C70 65.34 70 64.68 70 64 C69.01 64 68.02 64 67 64 C67 63.34 67 62.68 67 62 C66.01 62 65.02 62 64 62 C64 61.34 64 60.68 64 60 C61.66785852 58.79371992 59.50357861 57.8345262 57 57 C56.67 56.34 56.34 55.68 56 55 C55.01 54.67 54.02 54.34 53 54 C52.67 53.34 52.34 52.68 52 52 C51.01 51.67 50.02 51.34 49 51 C48.34 50.01 47.68 49.02 47 48 C46.01 47.67 45.02 47.34 44 47 C43.34 46.01 42.68 45.02 42 44 C41.01 43.67 40.02 43.34 39 43 C38.360625 42.195625 37.72125 41.39125 37.0625 40.5625 C35.26558081 37.94590715 35.26558081 37.94590715 33 37.0625 C30.53150528 35.75111218 29.69950126 34.04383141 28.265625 31.7109375 C26.20421221 28.9242128 23.52765535 26.88127668 20.88671875 24.66015625 C18.60500725 22.65243909 16.84083561 20.41212942 15 18 C13.35570171 16.31126121 11.68615782 14.64694485 10 13 C2.00021277 5.17680851 2.00021277 5.17680851 0 2 C0 1.34 0 0.68 0 0 Z " fill="#D687EB" transform="translate(375,860)"/>
<path d="M0 0 C15.49576845 12.97320149 29.48947446 27.11741893 42 43 C42.80703369 44.01416992 42.80703369 44.01416992 43.63037109 45.04882812 C60.2346885 65.93008388 60.2346885 65.93008388 63 72 C62.505 73.485 62.505 73.485 62 75 C61.31035156 73.98421875 60.62070312 72.9684375 59.91015625 71.921875 C46.23384172 51.8495624 31.26483188 33.12071809 14 16 C13.175 15.154375 12.35 14.30875 11.5 13.4375 C9.03416242 10.94271376 9.03416242 10.94271376 6.1875 8.8125 C5.465625 8.214375 4.74375 7.61625 4 7 C4 6.34 4 5.68 4 5 C2.68 4.34 1.36 3.68 0 3 C0 2.01 0 1.02 0 0 Z " fill="#D383EB" transform="translate(867,380)"/>
<path d="M0 0 C4.91365899 4.29609529 7.64826395 9.27395367 10.6875 15 C11.20642822 15.96607178 11.72535645 16.93214355 12.26000977 17.92749023 C32.75283192 56.44498667 32.75283192 56.44498667 31.61328125 63.33984375 C31.41089844 63.88769531 31.20851563 64.43554688 31 65 C30.67128906 64.22140625 30.34257813 63.4428125 30.00390625 62.640625 C17.48495169 32.89493609 17.48495169 32.89493609 1.21484375 5.1015625 C0 3 0 3 0 0 Z " fill="#D483EB" transform="translate(931,456)"/>
<path d="M0 0 C0.495 0.99 0.495 0.99 1 2 C-5.5325055 11.45158605 -12.44867712 20.34332169 -20 29 C-20.66128906 29.7734375 -21.32257812 30.546875 -22.00390625 31.34375 C-25.80784497 35.76891361 -29.81732624 39.93174589 -34 44 C-34 41 -34 41 -32.72265625 39.5 C-32.17480469 39.005 -31.62695312 38.51 -31.0625 38 C-28.72464075 35.87768805 -28.03724116 35.11172349 -27 32 C-25.35360035 30.64172029 -23.68704193 29.30745749 -22 28 C-21.67 27.34 -21.34 26.68 -21 26 C-20.34 26 -19.68 26 -19 26 C-18.77828125 25.47921875 -18.5565625 24.9584375 -18.328125 24.421875 C-16.49599131 21.08092533 -14.12842949 18.21026345 -11.75 15.25 C-10.75844783 14.0031341 -9.76755842 12.75574086 -8.77734375 11.5078125 C-8.30022949 10.90743164 -7.82311523 10.30705078 -7.33154297 9.68847656 C-4.82254376 6.50691467 -2.41001464 3.25677654 0 0 Z " fill="#D282EB" transform="translate(922,836)"/>
<path d="M0 0 C0.66 0 1.32 0 2 0 C14.32111593 37.48345314 14.32111593 37.48345314 14 48 C11.79306277 45.79306277 11.58930343 44.97904 10.95703125 42.01953125 C10.77358154 41.19557861 10.59013184 40.37162598 10.40112305 39.52270508 C10.20687744 38.6283374 10.01263184 37.73396973 9.8125 36.8125 C7.70695307 27.49469966 5.10485882 18.39995442 2.2355957 9.2902832 C1.94515381 8.36562256 1.65471191 7.44096191 1.35546875 6.48828125 C1.09403076 5.66884033 0.83259277 4.84939941 0.56323242 4.00512695 C0 2 0 2 0 0 Z " fill="#D482EB" transform="translate(963,522)"/>
<path d="M0 0 C1.98 0.99 1.98 0.99 4 2 C4 2.66 4 3.32 4 4 C4.66 4 5.32 4 6 4 C7.28788243 5.47144268 8.50570327 7.0045715 9.6875 8.5625 C13.19170111 13.05701881 16.88653478 17.06845707 21 21 C22.66666667 22.66666667 24.33333333 24.33333333 26 26 C26.9075 26.886875 27.815 27.77375 28.75 28.6875 C31 31 31 31 32 33 C23.61918499 29.31781126 17.16931933 21.32077241 11.25 14.56640625 C8.11756216 10.99346934 4.87997829 7.51819877 1.65234375 4.03125 C0 2 0 2 0 0 Z " fill="#D380EC" transform="translate(375,860)"/>
<path d="M0 0 C0.33 0 0.66 0 1 0 C1.56373196 20.86675531 -0.87574671 40.58348372 -5 61 C-5.33 61 -5.66 61 -6 61 C-5.32513925 53.43673202 -4.27505241 45.98635852 -3.01757812 38.5 C-2.18512364 33.25102588 -1.8890484 28.24891682 -2.04711914 22.93359375 C-2 21 -2 21 -1 20 C-0.84344973 18.51361008 -0.74933057 17.02050873 -0.68359375 15.52734375 C-0.64169922 14.62822266 -0.59980469 13.72910156 -0.55664062 12.80273438 C-0.51732422 11.85720703 -0.47800781 10.91167969 -0.4375 9.9375 C-0.39431641 8.98810547 -0.35113281 8.03871094 -0.30664062 7.06054688 C-0.20020724 4.70718647 -0.09818992 2.35371646 0 0 Z " fill="#D896EC" transform="translate(699,633)"/>
<path d="M0 0 C-1.08318867 3.24956601 -1.70216017 3.83392636 -4.25 5.9375 C-6.94953936 8.21873236 -9.59608765 10.53407192 -12.17578125 12.94921875 C-12.73426758 13.47201416 -13.29275391 13.99480957 -13.86816406 14.53344727 C-14.97044424 15.56886001 -16.07019699 16.60697223 -17.16699219 17.64819336 C-20.89680389 21.13757567 -24.79200982 24.10269529 -29 27 C-29.66 26.67 -30.32 26.34 -31 26 C-29.71372289 24.82739389 -28.42080217 23.6620717 -27.125 22.5 C-26.40570312 21.8503125 -25.68640625 21.200625 -24.9453125 20.53125 C-23 19 -23 19 -21 19 C-21 18.34 -21 17.68 -21 17 C-19.38281689 15.5671282 -17.70376628 14.20375251 -16 12.875 C-11.52374565 9.31132395 -7.46957732 5.60476749 -3.55859375 1.43359375 C-2 0 -2 0 0 0 Z " fill="#D282EC" transform="translate(883,884)"/>
<path d="M0 0 C-1.15228881 3.45686644 -1.71332184 3.72732305 -4.71875 5.5234375 C-5.48703125 5.9875 -6.2553125 6.4515625 -7.046875 6.9296875 C-8.26117187 7.64511719 -8.26117187 7.64511719 -9.5 8.375 C-10.27859375 8.84421875 -11.0571875 9.3134375 -11.859375 9.796875 C-14.22885128 11.21699158 -16.61302498 12.60953854 -19 14 C-19.82371094 14.49532227 -20.64742187 14.99064453 -21.49609375 15.50097656 C-22.29144531 15.96729492 -23.08679688 16.43361328 -23.90625 16.9140625 C-24.62103516 17.33896973 -25.33582031 17.76387695 -26.07226562 18.20166016 C-28 19 -28 19 -31 18 C-30.47680176 17.70343506 -29.95360352 17.40687012 -29.41455078 17.10131836 C-16.21893803 9.66422829 -16.21893803 9.66422829 -3.71484375 1.14453125 C-2 0 -2 0 0 0 Z " fill="#D383EB" transform="translate(834,924)"/>
<path d="M0 0 C1 3 1 3 -0.625 6.40625 C-1.40526255 7.77738608 -2.1976939 9.14164485 -3 10.5 C-3.41064697 11.20962891 -3.82129395 11.91925781 -4.24438477 12.65039062 C-5.48235817 14.77551032 -6.73739521 16.8894373 -8 19 C-8.35819824 19.60199219 -8.71639648 20.20398438 -9.08544922 20.82421875 C-13.0819838 27.49223367 -13.0819838 27.49223367 -15 30 C-15.66 30 -16.32 30 -17 30 C-15.43050647 25.61710584 -13.17294299 21.7636604 -10.75 17.8125 C-9.94399815 16.48438244 -9.13800861 15.15625742 -8.33203125 13.828125 C-7.93709473 13.18037109 -7.5421582 12.53261719 -7.13525391 11.86523438 C-5.55679914 9.27181623 -3.99677022 6.66748605 -2.4375 4.0625 C-1.625 2.70833333 -0.8125 1.35416667 0 0 Z " fill="#D483EB" transform="translate(942,803)"/>
<path d="M0 0 C0.66 0 1.32 0 2 0 C1.05196347 6.56141069 -0.36841839 12.40130957 -2.98046875 18.49609375 C-4.63761615 22.56594617 -5.81293145 26.77331653 -7 31 C-7.33 31 -7.66 31 -8 31 C-7.60850952 23.4788852 -5.94744909 16.95255941 -3.4375 9.875 C-3.10814453 8.91851563 -2.77878906 7.96203125 -2.43945312 6.9765625 C-1.63592616 4.64749884 -0.82272152 2.32233741 0 0 Z " fill="#D17DEA" transform="translate(315,522)"/>
<path d="M0 0 C0.66 0 1.32 0 2 0 C2 1.65 2 3.3 2 5 C3.10859375 4.6390625 4.2171875 4.278125 5.359375 3.90625 C6.82281966 3.43719723 8.28636674 2.96846393 9.75 2.5 C10.84441406 2.14228516 10.84441406 2.14228516 11.9609375 1.77734375 C12.66992188 1.55175781 13.37890625 1.32617188 14.109375 1.09375 C14.75874023 0.88427734 15.40810547 0.67480469 16.07714844 0.45898438 C18 0 18 0 22 0 C22 0.66 22 1.32 22 2 C18.89948553 2.8678228 15.79413335 3.71686767 12.6875 4.5625 C11.36588867 4.9327832 11.36588867 4.9327832 10.01757812 5.31054688 C9.17001953 5.53935547 8.32246094 5.76816406 7.44921875 6.00390625 C6.66893311 6.21861572 5.88864746 6.4333252 5.0847168 6.65454102 C3 7 3 7 0 6 C0 4.02 0 2.04 0 0 Z " fill="#D181E7" transform="translate(718,969)"/>
<path d="M0 0 C4.09192043 0.57345203 6.54162493 2.74623876 9.6875 5.3125 C10.66074219 6.09238281 11.63398438 6.87226562 12.63671875 7.67578125 C14.92389838 9.92515626 15.69257457 10.87569969 16 14 C15.34 14 14.68 14 14 14 C13.34 13.01 12.68 12.02 12 11 C11.01 10.67 10.02 10.34 9 10 C8.360625 9.195625 7.72125 8.39125 7.0625 7.5625 C5.03103039 5.03855291 3.81268585 4.35784834 1 3 C0.67 2.01 0.34 1.02 0 0 Z " fill="#DC9DF0" transform="translate(405,893)"/>
<path d="M0 0 C0.99 0.33 1.98 0.66 3 1 C3.77916092 6.02125926 4.13016601 9.97703996 3 15 C3.66 15 4.32 15 5 15 C4.67 17.64 4.34 20.28 4 23 C3.67 23 3.34 23 3 23 C2.49494737 20.10496617 1.9957978 17.20912047 1.5 14.3125 C1.35691406 13.49587891 1.21382813 12.67925781 1.06640625 11.83789062 C0.38834038 7.85021752 -0.19858392 4.06269596 0 0 Z " fill="#E6B0F5" transform="translate(297,683)"/>
<path d="M0 0 C0.99 0.33 1.98 0.66 3 1 C5.961655 7.02908339 6.31848359 12.5274442 5 19 C3.19523895 15.74358332 2.26051195 12.54663205 1.375 8.9375 C1.11460937 7.89464844 0.85421875 6.85179687 0.5859375 5.77734375 C0 3 0 3 0 0 Z " fill="#E3AAF3" transform="translate(303,717)"/>
<path d="M0 0 C1 3 1 3 0 6 C0.66 6.33 1.32 6.66 2 7 C1.57847656 7.61488281 1.15695312 8.22976563 0.72265625 8.86328125 C-0.09912109 10.07564453 -0.09912109 10.07564453 -0.9375 11.3125 C-1.48277344 12.11300781 -2.02804687 12.91351562 -2.58984375 13.73828125 C-4.13837326 16.0258143 -4.13837326 16.0258143 -5 19 C-5.66 19 -6.32 19 -7 19 C-5.17778624 12.38757278 -2.94776396 6.19479329 0 0 Z " fill="#D78EEB" transform="translate(741,720)"/>
<path d="M0 0 C0.99 0.495 0.99 0.495 2 1 C3.00784529 7.34942532 3.12058347 13.58227972 3 20 C2.34 20 1.68 20 1 20 C-0.23839599 13.34362157 -0.09139136 6.7528064 0 0 Z " fill="#D383ED" transform="translate(981,596)"/>
<path d="M0 0 C0.66 0 1.32 0 2 0 C3.60881575 7.42640842 4.26442904 14.40501039 4 22 C3.67 22 3.34 22 3 22 C2.86722656 21.14535156 2.73445312 20.29070313 2.59765625 19.41015625 C2.42105469 18.30542969 2.24445312 17.20070313 2.0625 16.0625 C1.88847656 14.96035156 1.71445312 13.85820313 1.53515625 12.72265625 C1.28154864 10.09573071 1.28154864 10.09573071 0 9 C-0.07179964 7.48071962 -0.08392007 5.95832518 -0.0625 4.4375 C-0.05347656 3.61121094 -0.04445313 2.78492188 -0.03515625 1.93359375 C-0.02355469 1.29550781 -0.01195312 0.65742187 0 0 Z " fill="#D284EC" transform="translate(977,572)"/>
<path d="M0 0 C6.875 3.625 6.875 3.625 8 7 C10.50447516 8.21869929 10.50447516 8.21869929 13 9 C12.67 9.66 12.34 10.32 12 11 C7.73176286 10.52575143 5.82507269 8.04238597 3 5 C2.401875 4.443125 1.80375 3.88625 1.1875 3.3125 C0 2 0 2 0 0 Z " fill="#E9C4F5" transform="translate(856,370)"/>
<path d="M0 0 C0 0.99 0 1.98 0 3 C-3.23908104 6.23908104 -7.17144304 8.50945084 -11 11 C-11.969375 11.639375 -12.93875 12.27875 -13.9375 12.9375 C-14.618125 13.288125 -15.29875 13.63875 -16 14 C-16.66 13.67 -17.32 13.34 -18 13 C-17.03578125 12.31292969 -16.0715625 11.62585938 -15.078125 10.91796875 C-13.80206523 10.00783788 -12.52602457 9.09768022 -11.25 8.1875 C-10.29867187 7.50977539 -10.29867187 7.50977539 -9.328125 6.81835938 C-6.19148171 4.58023369 -3.06803042 2.33201302 0 0 Z " fill="#D78FEC" transform="translate(833,898)"/>
<path d="M0 0 C1.98 0 3.96 0 6 0 C6 0.66 6 1.32 6 2 C3.86229382 3.62677091 1.7324466 5.13979644 -0.5 6.625 C-1.43005859 7.25535156 -1.43005859 7.25535156 -2.37890625 7.8984375 C-3.91517264 8.93837167 -5.45707524 9.96997056 -7 11 C-7.66 10.67 -8.32 10.34 -9 10 C-8.3503125 9.52949219 -7.700625 9.05898438 -7.03125 8.57421875 C-6.1959375 7.95160156 -5.360625 7.32898438 -4.5 6.6875 C-3.6646875 6.07261719 -2.829375 5.45773437 -1.96875 4.82421875 C-1.3190625 4.22222656 -0.669375 3.62023437 0 3 C0 2.01 0 1.02 0 0 Z " fill="#D383EC" transform="translate(845,912)"/>
<path d="M0 0 C0.99 0 1.98 0 3 0 C4.5703125 1.79296875 4.5703125 1.79296875 6.125 4.1875 C6.64320313 4.96480469 7.16140625 5.74210938 7.6953125 6.54296875 C9.03454487 9.06505606 9.59046145 11.18816826 10 14 C5.40783094 9.93265026 2.7832093 5.43614072 0 0 Z " fill="#DC98EF" transform="translate(353,832)"/>
<path d="M0 0 C-10.37357631 4.40774487 -10.37357631 4.40774487 -16 5 C-16 4.01 -16 3.02 -16 2 C-3.59493671 -1.79746835 -3.59493671 -1.79746835 0 0 Z " fill="#EBC2F5" transform="translate(768,962)"/>
<path d="M0 0 C0.33 0.66 0.66 1.32 1 2 C-0.28062485 3.7074998 -1.61767557 5.37373596 -3 7 C-3.66 7 -4.32 7 -5 7 C-5.2475 7.61875 -5.495 8.2375 -5.75 8.875 C-7.22047178 11.37480203 -8.41403076 11.83316022 -11 13 C-7.61227103 8.30840284 -4.21814817 3.9700218 0 0 Z " fill="#D68DEC" transform="translate(884,851)"/>
<path d="M0 0 C0.99 0 1.98 0 3 0 C3.36504603 1.58086048 3.71660506 3.16483907 4.0625 4.75 C4.25972656 5.63171875 4.45695312 6.5134375 4.66015625 7.421875 C4.99825872 9.98679028 4.81158635 11.57091639 4 14 C3.32968281 12.0429132 2.66385317 10.08428887 2 8.125 C1.62875 7.03445313 1.2575 5.94390625 0.875 4.8203125 C0 2 0 2 0 0 Z " fill="#E7B5F4" transform="translate(309,740)"/>
<path d="M0 0 C3.63 2.31 7.26 4.62 11 7 C7 8 7 8 5.078125 7.109375 C4.47484375 6.66078125 3.8715625 6.2121875 3.25 5.75 C2.63640625 5.31171875 2.0228125 4.8734375 1.390625 4.421875 C0 3 0 3 0 0 Z " fill="#DEA0F0" transform="translate(841,359)"/>
<path d="M0 0 C1.32 0.33 2.64 0.66 4 1 C5.75 4.5625 5.75 4.5625 7 8 C6.34 8.66 5.68 9.32 5 10 C3.35 6.7 1.7 3.4 0 0 Z " fill="#E1A1F2" transform="translate(333,799)"/>
<path d="M0 0 C0.33 0 0.66 0 1 0 C1.33 3.96 1.66 7.92 2 12 C1.34 12 0.68 12 0 12 C0 14.31 0 16.62 0 19 C-0.33 19 -0.66 19 -1 19 C-1.10349817 12.58311325 -0.74507544 6.37305598 0 0 Z " fill="#E39EF7" transform="translate(296,604)"/>
<path d="M0 0 C0 0.66 0 1.32 0 2 C-1.65 2.33 -3.3 2.66 -5 3 C-5 3.99 -5 4.98 -5 6 C-6.32 5.67 -7.64 5.34 -9 5 C-9 4.34 -9 3.68 -9 3 C-3.375 0 -3.375 0 0 0 Z " fill="#DDA1F0" transform="translate(785,952)"/>
<path d="M0 0 C1.8125 0.125 1.8125 0.125 4 1 C5.8125 3.875 5.8125 3.875 7 7 C6.67 7.99 6.34 8.98 6 10 C4.99723227 8.52270825 3.99785546 7.04311423 3 5.5625 C2.443125 4.73878906 1.88625 3.91507813 1.3125 3.06640625 C0 1 0 1 0 0 Z " fill="#E1A2F2" transform="translate(343,817)"/>
<path d="M0 0 C0.88336837 2.4667645 1.1312406 3.63859372 0.22265625 6.140625 C-0.16019531 6.83671875 -0.54304687 7.5328125 -0.9375 8.25 C-1.31777344 8.95640625 -1.69804688 9.6628125 -2.08984375 10.390625 C-2.39019531 10.92171875 -2.69054687 11.4528125 -3 12 C-3.66 12 -4.32 12 -5 12 C-3.85814266 7.52040582 -2.56984833 3.85477249 0 0 Z " fill="#D584EB" transform="translate(952,783)"/>
<path d="M0 0 C3 1 3 1 4.1875 3.25 C4.99938294 5.99791147 5.16260121 8.15447889 5 11 C2.03947516 7.63576723 1.07710178 4.30840713 0 0 Z " fill="#E4AFF3" transform="translate(321,773)"/>
<path d="M0 0 C0 3 0 3 -1.53125 4.60546875 C-2.1809375 5.12753906 -2.830625 5.64960937 -3.5 6.1875 C-4.1496875 6.71730469 -4.799375 7.24710938 -5.46875 7.79296875 C-5.9740625 8.19128906 -6.479375 8.58960938 -7 9 C-7.66 8.67 -8.32 8.34 -9 8 C-6.03 5.36 -3.06 2.72 0 0 Z " fill="#D48FED" transform="translate(848,886)"/>
<path d="M0 0 C0.33 0 0.66 0 1 0 C1.04254356 1.99954746 1.04080783 4.00041636 1 6 C0 7 0 7 -2.5625 7.0625 C-3.7690625 7.0315625 -3.7690625 7.0315625 -5 7 C-5.33 6.34 -5.66 5.68 -6 5 C-4.35 5 -2.7 5 -1 5 C-0.67 3.35 -0.34 1.7 0 0 Z " fill="#CF78E7" transform="translate(691,975)"/>
<path d="M0 0 C0.33 0 0.66 0 1 0 C0.25 7.625 0.25 7.625 -2 11 C-2.28571429 3.57142857 -2.28571429 3.57142857 0 0 Z " fill="#D07AEA" transform="translate(306,554)"/>
<path d="M0 0 C2.64 0 5.28 0 8 0 C7.67 0.66 7.34 1.32 7 2 C4.67843403 2.40729228 2.3431213 2.74438677 0 3 C0 2.01 0 1.02 0 0 Z " fill="#ECCAF7" transform="translate(768,958)"/>
<path d="M0 0 C2.12508244 3.18762365 2.5020163 5.26512223 3 9 C2.01 8.67 1.02 8.34 0 8 C0 5.36 0 2.72 0 0 Z " fill="#D790EA" transform="translate(308,731)"/>
<path d="M0 0 C0.66 1.32 1.32 2.64 2 4 C0.625 7.25 0.625 7.25 -1 10 C-1.66 10 -2.32 10 -3 10 C-2.01 6.7 -1.02 3.4 0 0 Z " fill="#D6A4E7" transform="translate(737,729)"/>
<path d="M0 0 C0.66 1.32 1.32 2.64 2 4 C2.99 4.33 3.98 4.66 5 5 C4.01 6.32 3.02 7.64 2 9 C1.34 6.03 0.68 3.06 0 0 Z " fill="#D592EB" transform="translate(719,719)"/>
</svg>
